 <svg xmlns="http://www.w3.org/2000/svg" x="0px" y="0px"
width="24" height="24"
viewBox="0 0 24 24"
style=" fill:#000000;"><path d="M 12 2 C 6.5 2 2 6.3 2 11.5 C 2 14 3.1 16.500781 5 18.300781 L 5 22.599609 L 9.0996094 20.599609 C 9.9996094 20.899609 11 21 12 21 C 17.5 21 22 16.7 22 11.5 C 22 6.3 17.5 2 12 2 z M 12 4 C 16.4 4 20 7.4 20 11.5 C 20 15.6 16.4 19 12 19 C 11.2 19 10.399609 18.899219 9.5996094 18.699219 L 8.8007812 18.5 L 8.0996094 18.800781 L 7 19.400391 L 7 18.300781 L 7 17.400391 L 6.4003906 16.800781 C 4.9003906 15.400781 4 13.5 4 11.5 C 4 7.4 7.6 4 12 4 z M 11 9 L 6 14 L 10.5 12 L 13 14 L 18 9 L 13.5 11 L 11 9 z"></path></svg>